<svg width="29" height="29" viewBox="0 0 29 29" fill="none" xmlns="http://www.w3.org/2000/svg">
<path d="M26.7273 16L1.27273 16C0.935179 16 0.611456 15.842 0.372772 15.5607C0.13409 15.2794 0 14.8978 0 14.5C0 14.1022 0.13409 13.7206 0.372772 13.4393C0.611456 13.158 0.935179 13 1.27273 13L26.7273 13C27.0648 13 27.3885 13.158 27.6272 13.4393C27.8659 13.7206 28 14.1022 28 14.5C28 14.8978 27.8659 15.2794 27.6272 15.5607C27.3885 15.842 27.0648 16 26.7273 16Z" fill="#333333"/>
<path d="M25.9262 14.5L15.3731 2.47812C15.1342 2.20588 15 1.83665 15 1.45165C15 1.06665 15.1342 0.697414 15.3731 0.425177C15.6121 0.152941 15.9361 0 16.274 0C16.6119 0 16.9359 0.152941 17.1748 0.425177L28.6262 13.4735C28.7447 13.6082 28.8387 13.7682 28.9028 13.9443C28.967 14.1205 29 14.3093 29 14.5C29 14.6907 28.967 14.8795 28.9028 15.0557C28.8387 15.2318 28.7447 15.3918 28.6262 15.5265L17.1748 28.5748C16.9359 28.8471 16.6119 29 16.274 29C15.9361 29 15.6121 28.8471 15.3731 28.5748C15.1342 28.3026 15 27.9334 15 27.5484C15 27.1634 15.1342 26.7941 15.3731 26.5219L25.9262 14.5Z" fill="#333333"/>
</svg>
